# xmcd
#
# Track frame offsets:
#	150
#	13072
#	24200
#	41150
#	54477
#	70052
#	79750
#	90962
#	105815
#	121755
#
# Disc length: 1843 seconds
#
# Revision: 0
# Processed by: cddbd v1.4PL0 Copyright (c) Steve Scherf et al.
# Submitted via: EasyCDDAExtractor 4.6.0.1
#
DISCID=6707310a
DTITLE=Ray Price - All His Greatest Hits
DYEAR=1999
DGENRE=Country
TTITLE0=City Lights
TTITLE1=Crazy Arms
TTITLE2=For The Good Times
TTITLE3=Heartaches By The Number
TTITLE4=I Won't Mention It Again
TTITLE5=Make The World Go Away
TTITLE6=My Shoes Keep Walking Back To You
TTITLE7=Night Life
TTITLE8=She's Got To Be A Saint
TTITLE9=You're The Best Thing That Ever Happened To Me
EXTD=
EXTT0=
EXTT1=
EXTT2=
EXTT3=
EXTT4=
EXTT5=
EXTT6=
EXTT7=
EXTT8=
EXTT9=
PLAYORDER=
